<mxfile host="app.diagrams.net" modified="2021-09-08T06:43:45.216Z" agent="5.0 (Windows NT 10.0; Win64; x64) AppleWebKit/537.36 (KHTML, like Gecko) Chrome/92.0.4515.159 Safari/537.36" etag="NNFqngaLo9sHA0y6cPNV" version="15.0.6" type="github">
  <diagram id="hqVuFpz5qQ83IH__2DgZ" name="Page-1">
    <mxGraphModel dx="1038" dy="560" grid="1" gridSize="10" guides="1" tooltips="1" connect="1" arrows="1" fold="1" page="1" pageScale="1" pageWidth="850" pageHeight="1100" math="0" shadow="0">
      <root>
        <mxCell id="0" />
        <mxCell id="1" parent="0" />
        <mxCell id="tn2VMCZ_ZClMrC3vwiUP-1" value="Vertical Container" style="swimlane;" parent="1" vertex="1">
          <mxGeometry x="80" y="120" width="200" height="520" as="geometry" />
        </mxCell>
        <mxCell id="fuXSUL8qSz9Ow0XiEabc-1" value="" style="rounded=0;whiteSpace=wrap;html=1;" vertex="1" parent="1">
          <mxGeometry x="360" y="100" width="120" height="60" as="geometry" />
        </mxCell>
      </root>
    </mxGraphModel>
  </diagram>
</mxfile>
